<?xml version="1.0" encoding="utf-8"?>
<!-- Generator: Adobe Illustrator 23.0.1, SVG Export Plug-In . SVG Version: 6.00 Build 0)  -->
<!DOCTYPE svg PUBLIC "-//W3C//DTD SVG 1.1//EN" "http://www.w3.org/Graphics/SVG/1.1/DTD/svg11.dtd" [
	<!ENTITY ns_extend "http://ns.adobe.com/Extensibility/1.0/">
	<!ENTITY ns_ai "http://ns.adobe.com/AdobeIllustrator/10.0/">
	<!ENTITY ns_graphs "http://ns.adobe.com/Graphs/1.0/">
	<!ENTITY ns_vars "http://ns.adobe.com/Variables/1.0/">
	<!ENTITY ns_imrep "http://ns.adobe.com/ImageReplacement/1.0/">
	<!ENTITY ns_sfw "http://ns.adobe.com/SaveForWeb/1.0/">
	<!ENTITY ns_custom "http://ns.adobe.com/GenericCustomNamespace/1.0/">
	<!ENTITY ns_adobe_xpath "http://ns.adobe.com/XPath/1.0/">
]>
<svg version="1.1" id="Layer_1" xmlns:x="&ns_extend;" xmlns:i="&ns_ai;" xmlns:graph="&ns_graphs;"
	 xmlns="http://www.w3.org/2000/svg" xmlns:xlink="http://www.w3.org/1999/xlink" x="0px" y="0px" viewBox="0 0 143 51.8"
	 style="enable-background:new 0 0 143 51.8;" xml:space="preserve">
<style type="text/css">
	.st0{fill:#0070C8;}
	.st1{fill:#00B4E6;}
</style>
<metadata>
	<sfw  xmlns="&ns_sfw;">
		<slices></slices>
		<sliceSourceBounds  bottomLeftOrigin="true" height="51.8" width="143" x="505.1" y="230.4"></sliceSourceBounds>
	</sfw>
</metadata>
<title>Asset 18</title>
<g>
	<g id="Layer_1-2">
		<path class="st0" d="M61.7,11.4c-8.3,0-15,6.7-15,15c0,8.3,6.7,15,15,15c8.3,0,15-6.7,15-15C76.7,18.2,70,11.4,61.7,11.4z
			 M70.5,26.4c0,4.9-4,8.8-8.8,8.8c-4.4,0-8.8-4.5-8.8-8.8c0-4.9,4-8.8,8.9-8.8C66.6,17.6,70.5,21.6,70.5,26.4L70.5,26.4z"/>
		<path class="st0" d="M15,11.4c-3,0-6,0.9-8.5,2.6v-8c0-1.3-0.7-2.8-1.8-4C3.5,0.7,1.9,0,0.3,0H0v0.3c0,0,0,25.9,0,26.1
			c0,8.3,6.7,15,15,15c8.3,0,15-6.7,15-15C30,18.1,23.3,11.4,15,11.4z M23.8,26.4c0,4.9-4,8.8-8.8,8.8c-4.4,0-8.8-4.5-8.8-8.8
			c0.1-4.9,4.1-8.8,9-8.7C19.9,17.8,23.8,21.6,23.8,26.4L23.8,26.4z"/>
		<path class="st0" d="M41.5,41.4V16.7c0-2.6-2.6-5.6-6-5.6h-0.3v25c0,2.6,2.6,5.6,6,5.6h0.3L41.5,41.4z"/>
		<path class="st0" d="M38.4,1.1L38.4,1.1c-1.8,0-3.3,1.5-3.3,3.3s1.5,3.3,3.3,3.3c0.9,0,1.7-0.4,2.4-1c0.6-0.6,1-1.5,0.9-2.4
			C41.6,2.5,40.1,1.1,38.4,1.1z"/>
		<path class="st1" d="M139.7,43.4c-0.1-0.1-8.1-7.8-9-8.6l-0.2-0.2l-0.2,0.2c-0.9,0.6-1.8,1.2-2.7,1.7c4-3.7,6.5-9,6.5-14.9
			c0-5.1-2.1-10.2-5.8-14c-3.8-4-8.9-6.1-14.4-6.1c-9.6,0-20,7.8-20,20.4c0,10.8,9.2,19.9,20,19.9c4,0,7.9-1.1,11.3-3.3L139,51.6
			l0.2,0.2l0.2-0.2c1.1-1.2,1.8-2.8,1.7-4.5C141.1,45.6,140.6,44.3,139.7,43.4z M114.1,35.6c-3.4,0-6.9-1.4-9.4-3.9
			c-2.6-2.6-4.1-6.2-4.1-9.9c0-6.8,5.2-14.2,13.5-14.2c5.4,0,13.5,4.4,13.5,13.8C127.6,28.3,122.5,35.6,114.1,35.6z"/>
		<path class="st1" d="M88.2,16.7c0-2.6-2.6-5.6-6-5.6h-0.3v25c0,2.6,2.6,5.6,6,5.6h0.3v-0.3L88.2,16.7z"/>
		<path class="st1" d="M85.1,1.1L85.1,1.1c-1.8,0-3.3,1.5-3.3,3.3c0,1.8,1.5,3.3,3.3,3.3c0.9,0,1.7-0.4,2.4-1c0.6-0.6,1-1.5,0.9-2.4
			C88.3,2.5,86.9,1.1,85.1,1.1z"/>
		<path class="st1" d="M136.8,4.4c0-2,1.4-3.3,3.1-3.3c1.7,0,3.1,1.3,3.1,3.3s-1.4,3.3-3.1,3.3S136.8,6.4,136.8,4.4z M142.5,4.4
			c0-1.7-1.2-2.9-2.6-2.9c-1.4,0-2.6,1.2-2.6,2.9s1.2,2.9,2.6,2.9C141.4,7.2,142.5,6,142.5,4.4z M138.8,2.5h1.1
			c0.7,0,1.3,0.2,1.3,1.1c0,0.4-0.3,0.8-0.7,1l0.9,1.5h-0.6l-0.7-1.3h-0.9v1.3h-0.5L138.8,2.5z M139.8,4.3c0.6,0,0.9-0.2,0.9-0.7
			c0-0.4-0.2-0.7-0.9-0.7h-0.6v1.3L139.8,4.3z"/>
	</g>
</g>
</svg>
